HIERARCHY
ROOT joint_Root
{
	OFFSET 0.0 0.0 0.0
	CHANNELS 6 Xposition Yposition Zposition Zrotation Xrotation Yrotation 
	JOINT Hips
	{
		OFFSET -17.1583 93.1646 452.98
		CHANNELS 6 Xposition Yposition Zposition Zrotation Xrotation Yrotation 
		JOINT Spine
		{
			OFFSET 15.7357 0.0 0.0
			CHANNELS 6 Xposition Yposition Zposition Zrotation Xrotation Yrotation 
			JOINT Chest
			{
				OFFSET 8.98455 -0.406207 0.0
				CHANNELS 6 Xposition Yposition Zposition Zrotation Xrotation Yrotation 
				JOINT Neck
				{
					OFFSET 16.3773 0.0 0.0
					CHANNELS 6 Xposition Yposition Zposition Zrotation Xrotation Yrotation 
					JOINT Head
					{
						OFFSET 6.45672 0.0 0.0
						CHANNELS 6 Xposition Yposition Zposition Zrotation Xrotation Yrotation 
						End Site
						{
							OFFSET 0.0 0.0 0.0
						}
					}
				}
				JOINT Shoulder_L
				{
					OFFSET 12.9942 -0.242716 4.98039
					CHANNELS 6 Xposition Yposition Zposition Zrotation Xrotation Yrotation 
					JOINT UpperArm_L
					{
						OFFSET 5.34809 0.0 0.0
						CHANNELS 6 Xposition Yposition Zposition Zrotation Xrotation Yrotation 
						JOINT LowerArm_L
						{
							OFFSET 24.3286 1.87007e-05 0.0
							CHANNELS 6 Xposition Yposition Zposition Zrotation Xrotation Yrotation 
							JOINT Hand_L
							{
								OFFSET 22.2916 0.0 0.0
								CHANNELS 6 Xposition Yposition Zposition Zrotation Xrotation Yrotation 
								End Site
								{
									OFFSET 0.0 0.0 0.0
								}
							}
						}
					}
				}
				JOINT Shoulder_R
				{
					OFFSET 12.9945 -0.242716 -4.98039
					CHANNELS 6 Xposition Yposition Zposition Zrotation Xrotation Yrotation 
					JOINT UpperArm_R
					{
						OFFSET -5.34813 0.0 0.0
						CHANNELS 6 Xposition Yposition Zposition Zrotation Xrotation Yrotation 
						JOINT LowerArm_R
						{
							OFFSET -24.3289 0.000322201 0.0
							CHANNELS 6 Xposition Yposition Zposition Zrotation Xrotation Yrotation 
							JOINT Hand_R
							{
								OFFSET -22.2915 -0.000108084 0.0
								CHANNELS 6 Xposition Yposition Zposition Zrotation Xrotation Yrotation 
								End Site
								{
									OFFSET 0.0 0.0 0.0
								}
							}
						}
					}
				}
			}
		}
		JOINT UpperLeg_L
		{
			OFFSET -2.19248 -6.46944 0.0
			CHANNELS 6 Xposition Yposition Zposition Zrotation Xrotation Yrotation 
			JOINT LowerLeg_L
			{
				OFFSET 39.0811 0.0 -1.23785e-05
				CHANNELS 6 Xposition Yposition Zposition Zrotation Xrotation Yrotation 
				JOINT Foot_L
				{
					OFFSET 40.9854 0.0 -1.26872e-05
					CHANNELS 6 Xposition Yposition Zposition Zrotation Xrotation Yrotation 
					JOINT Toes_L
					{
						OFFSET 11.7543 0.0 0.0
						CHANNELS 6 Xposition Yposition Zposition Zrotation Xrotation Yrotation 
						End Site
						{
							OFFSET 0.0 0.0 0.0
						}
					}
				}
			}
		}
		JOINT UpperLeg_R
		{
			OFFSET -2.19251 6.46944 0.0
			CHANNELS 6 Xposition Yposition Zposition Zrotation Xrotation Yrotation 
			JOINT LowerLeg_R
			{
				OFFSET -39.0811 -0.00228153 -0.0401928
				CHANNELS 6 Xposition Yposition Zposition Zrotation Xrotation Yrotation 
				JOINT Foot_R
				{
					OFFSET -40.9854 0.0 0.0
					CHANNELS 6 Xposition Yposition Zposition Zrotation Xrotation Yrotation 
					JOINT Toes_R
					{
						OFFSET -11.7543 0.0 0.0
						CHANNELS 6 Xposition Yposition Zposition Zrotation Xrotation Yrotation 
						End Site
						{
							OFFSET 0.0 0.0 0.0
						}
					}
				}
			}
		}
	}
}
MOTION
Frames:	6
Frame Time:	0.0333333
0.000000 0.000000 0.000000 0.000000 0.000000 -0.000000 -3.061500 89.112000 489.046000 -93.955000 6.708290 175.584000 15.735700 0.000005 -0.000001 148.453000 88.696900 -149.143000 8.984550 -0.406207 -0.000000 -6.391140 2.302420 -1.254520 16.377300 -0.000001 -0.000001 6.432780 4.799280 -0.260162 6.456720 -0.000001 -0.000000 6.456220 6.033680 -5.056840 12.994200 -0.242716 4.980390 -93.158800 8.423640 -69.357300 5.348090 -0.000007 -0.000001 -67.772800 -8.577390 5.061160 24.328600 0.000019 0.000005 11.884100 29.380300 -23.216400 22.291600 -0.000001 0.000005 50.681900 4.622880 14.518600 12.994500 -0.242716 -4.980390 88.613700 4.451890 -72.684000 -5.348130 -0.000001 -0.000004 -70.613300 10.748100 -0.234472 -24.328900 0.000322 -0.000009 3.081070 8.737440 -19.513100 -22.291500 -0.000108 -0.000004 38.505100 5.348150 -1.321430 -2.192480 -6.469440 -0.000000 173.120000 1.800990 -28.198900 39.081100 -0.000007 -0.000012 0.524763 -0.670224 38.061100 40.985400 -0.000006 -0.000013 5.206950 5.809760 -69.395100 11.754300 -0.000000 0.000003 -0.000110 0.169453 -9.703780 -2.192510 6.469440 -0.000001 171.392000 13.991200 176.810000 -39.081100 -0.002282 -0.040193 0.171502 -0.156660 47.042100 -40.985400 0.000008 0.000006 -5.383150 -29.065000 -53.953700 -11.754300 -0.000006 -0.000006 -0.006639 -0.076529 -19.688200
0.000000 0.000000 0.000000 0.000000 0.000000 -0.000000 -3.485410 89.248100 485.707000 -94.112500 7.004810 177.433000 15.735700 0.000005 -0.000001 118.642000 88.671400 -119.248000 8.984550 -0.406207 -0.000000 -5.427330 1.341920 -1.149930 16.377300 -0.000001 -0.000001 6.618410 5.279980 -0.658713 6.456720 -0.000001 -0.000000 7.088430 6.825140 -4.927700 12.994200 -0.242716 4.980390 -93.110900 8.420600 -69.638200 5.348090 -0.000007 -0.000001 -67.214400 -9.328580 2.798360 24.328600 0.000019 0.000005 13.480700 29.402300 -26.024900 22.291600 -0.000001 0.000005 51.157100 4.597220 14.958400 12.994500 -0.242716 -4.980390 88.595400 4.437350 -72.415700 -5.348130 -0.000001 -0.000004 -68.829500 6.564110 1.093030 -24.328900 0.000322 -0.000009 1.994530 7.460850 -15.015800 -22.291500 -0.000108 -0.000004 38.475300 5.322770 -0.577787 -2.192480 -6.469440 -0.000000 172.162000 0.293440 -23.771600 39.081100 -0.000007 -0.000012 0.582515 -0.750593 37.815800 40.985400 -0.000006 -0.000013 6.383360 6.473960 -71.707900 11.754300 -0.000000 0.000003 -0.000307 0.172643 -9.574220 -2.192510 6.469440 -0.000001 171.562000 9.952080 171.680000 -39.081100 -0.002282 -0.040193 0.207360 -0.133386 56.839500 -40.985400 0.000008 0.000006 0.925578 -27.298900 -43.257100 -11.754300 -0.000006 -0.000006 -0.000699 0.178703 -9.324550
0.000000 0.000000 0.000000 0.000000 0.000000 -0.000000 -3.807310 89.476100 482.654000 -93.936000 6.879840 179.101000 15.735700 0.000005 -0.000001 92.543200 88.233100 -92.952800 8.984550 -0.406207 -0.000000 -4.234840 0.199567 -0.812311 16.377300 -0.000001 -0.000001 6.848240 5.557020 -1.021990 6.456720 -0.000001 -0.000000 7.040860 7.516520 -5.064510 12.994200 -0.242716 4.980390 -93.136700 8.591780 -69.856000 5.348090 -0.000007 -0.000001 -67.012700 -11.274400 0.481336 24.328600 0.000019 0.000005 16.746000 30.186500 -30.894400 22.291600 -0.000001 0.000005 52.282500 4.515040 16.348700 12.994500 -0.242716 -4.980390 88.620200 4.278040 -72.105500 -5.348130 -0.000001 -0.000004 -66.696300 1.955990 2.551260 -24.328900 0.000322 -0.000009 1.324480 6.013950 -12.450800 -22.291500 -0.000108 -0.000004 39.217000 5.303860 -0.037232 -2.192480 -6.469440 -0.000000 171.835000 -0.336014 -19.236600 39.081100 -0.000007 -0.000012 0.597387 -0.801626 36.696000 40.985400 -0.000006 -0.000013 7.168880 6.604000 -73.296600 11.754300 -0.000000 0.000003 -0.000503 0.175704 -9.449870 -2.192510 6.469440 -0.000001 172.302000 6.209880 167.273000 -39.081100 -0.002282 -0.040193 0.202498 -0.091723 65.290900 -40.985400 0.000008 0.000006 0.176522 -14.040200 -45.432600 -11.754300 -0.000006 -0.000006 -0.000268 0.172063 -9.594300
0.000000 0.000000 0.000000 0.000000 0.000000 -0.000000 -3.852200 89.941600 479.712000 -92.992600 6.476950 -179.461000 15.735700 0.000005 -0.000001 78.777500 87.595400 -78.734000 8.984550 -0.406207 -0.000000 -3.048620 -0.939670 0.062041 16.377300 -0.000001 -0.000001 7.139820 5.601490 -1.374550 6.456720 -0.000001 -0.000000 7.062920 8.076000 -5.250670 12.994200 -0.242716 4.980390 -93.106800 8.570540 -69.988200 5.348090 -0.000007 -0.000001 -67.694000 -13.689600 -1.237880 24.328600 0.000019 0.000005 21.070000 29.638100 -37.918000 22.291600 -0.000001 0.000005 53.232000 4.438940 17.595400 12.994500 -0.242716 -4.980390 88.705700 3.903160 -71.638200 -5.348130 -0.000001 -0.000004 -64.347900 -2.220380 4.135300 -24.328900 0.000322 -0.000009 0.772923 3.900100 -11.232100 -22.291500 -0.000108 -0.000004 40.593300 5.302500 0.001715 -2.192480 -6.469440 -0.000000 172.544000 -0.483466 -14.300500 39.081100 -0.000007 -0.000012 0.572899 -0.837698 34.369900 40.985400 -0.000006 -0.000013 7.638870 6.782730 -74.183900 11.754300 -0.000000 0.000003 -0.000476 0.175289 -9.466740 -2.192510 6.469440 -0.000001 174.004000 2.755430 163.032000 -39.081100 -0.002282 -0.040193 0.190159 -0.066792 70.349500 -40.985400 0.000008 0.000006 -2.458930 -7.803910 -47.274700 -11.754300 -0.000006 -0.000006 -0.000889 0.181485 -9.211500
0.000000 0.000000 0.000000 0.000000 0.000000 -0.000000 -3.677000 90.530400 476.850000 -91.591600 6.344200 -178.747000 15.735700 0.000005 -0.000001 72.374300 87.183500 -71.790900 8.984550 -0.406207 -0.000000 -2.388640 -1.756830 1.130100 16.377300 -0.000001 -0.000001 7.531830 5.636100 -1.486020 6.456720 -0.000001 -0.000000 7.365110 8.459290 -5.325960 12.994200 -0.242716 4.980390 -92.962900 8.284260 -70.240800 5.348090 -0.000007 -0.000001 -68.928400 -16.462200 -2.021560 24.328600 0.000019 0.000005 26.818100 28.239000 -46.890800 22.291600 -0.000001 0.000005 53.750900 4.365680 18.766000 12.994500 -0.242716 -4.980390 88.883000 3.292440 -71.247300 -5.348130 -0.000001 -0.000004 -62.202700 -6.122040 6.132200 -24.328900 0.000322 -0.000009 0.390734 1.998540 -11.097600 -22.291500 -0.000108 -0.000004 42.546300 5.303000 -0.010926 -2.192480 -6.469440 -0.000000 174.063000 -1.724640 -9.618250 39.081100 -0.000007 -0.000012 0.503542 -0.835853 31.067500 40.985400 -0.000006 -0.000013 8.060410 7.864800 -74.700600 11.754300 -0.000000 0.000003 -0.000603 0.177224 -9.388120 -2.192510 6.469440 -0.000001 176.303000 0.071392 158.810000 -39.081100 -0.002282 -0.040193 0.139120 -0.043601 72.228900 -40.985400 0.000008 0.000006 -3.976050 -9.458700 -50.285200 -11.754300 -0.000006 -0.000006 -0.001019 0.183343 -9.136010
0.000000 0.000000 0.000000 0.000000 0.000000 -0.000000 -3.422550 91.129600 474.132000 -90.027900 6.302100 -178.870000 15.735700 0.000005 -0.000001 66.602800 87.002700 -65.467700 8.984550 -0.406207 -0.000000 -2.239520 -2.478880 2.221750 16.377300 -0.000001 -0.000001 7.645200 5.670090 -1.541220 6.456720 -0.000001 -0.000000 7.774040 8.957820 -5.299110 12.994200 -0.242716 4.980390 -92.880500 8.149560 -70.458000 5.348090 -0.000007 -0.000001 -69.570600 -18.173900 -2.052980 24.328600 0.000019 0.000005 33.412400 25.943300 -56.445600 22.291600 -0.000001 0.000005 53.887900 4.273780 20.195100 12.994500 -0.242716 -4.980390 89.084500 2.651840 -70.945300 -5.348130 -0.000001 -0.000004 -60.229800 -9.130110 8.215260 -24.328900 0.000322 -0.000009 -0.018221 -0.082240 -11.724700 -22.291500 -0.000108 -0.000004 44.615800 5.309970 -0.207537 -2.192480 -6.469440 -0.000000 175.992000 -3.568080 -5.459540 39.081100 -0.000007 -0.000012 0.410656 -0.806938 26.973000 40.985400 -0.000006 -0.000013 8.484750 9.754850 -74.974700 11.754300 -0.000000 0.000003 -0.000537 0.176218 -9.428990 -2.192510 6.469440 -0.000001 178.479000 -1.910790 154.757000 -39.081100 -0.002282 -0.040193 0.080212 -0.026473 71.052200 -40.985400 0.000008 0.000006 -4.941050 -13.007700 -55.077800 -11.754300 -0.000006 -0.000006 -0.001018 0.183336 -9.136290
